<?xml version="1.0" encoding="UTF-8" standalone="no"?>
<svg
   xmlns:dc="http://purl.org/dc/elements/1.1/"
   xmlns:cc="http://creativecommons.org/ns#"
   xmlns:rdf="http://www.w3.org/1999/02/22-rdf-syntax-ns#"
   xmlns:svg="http://www.w3.org/2000/svg"
   xmlns="http://www.w3.org/2000/svg"
   id="svg8"
   version="1.1"
   height="500"
   width="500">
  <metadata
     id="metadata14">
    <rdf:RDF>
      <cc:Work
         rdf:about="">
        <dc:format>image/svg+xml</dc:format>
        <dc:type
           rdf:resource="http://purl.org/dc/dcmitype/StillImage" />
      </cc:Work>
    </rdf:RDF>
  </metadata>
  <defs
     id="defs12" />
  <path
     id="path2"
     d="M0 0L0 500L500 500L500 0L0 0z"
     style="fill:#000000; stroke:none;" />
  <path
     id="path4"
     d="M145 93C129.525 94.9557 106.332 90.6828 97.4174 107C93.0832 114.934 94.0034 124.307 94 133C93.9985 136.945 94.719 142.559 90.7716 144.972C78.5223 152.462 36.5983 134.567 43.3943 163.999C47.684 182.578 79.0246 167.058 90.5664 175.028C95.1331 178.181 94.3871 193.915 93.9414 198.999C93.2516 206.867 86.0774 206 80 206C67.4597 206 40.1959 201.693 42.7091 222C44.6591 237.756 68.8412 232.999 80 233C85.4322 233 92.4814 232.157 93.7716 239.015C94.8494 244.744 96.381 262.543 90.7716 265.972C78.3043 273.595 43.9356 255.714 43.044 280C42.1087 305.473 79.7793 287.085 91.6821 295.028C98.0061 299.248 93.0007 320.355 93 327C80.5451 327 60.3115 323.205 49.0154 329.175C40.7007 333.569 40.774 347.924 49.0432 352.312C57.1295 356.603 71.0581 354 80 354C83.8395 354 89.6023 353.001 92.3966 356.318C95.3086 359.774 94 366.8 94 371C94 382.243 94.5364 394.208 105.004 401.031C112.268 405.766 121.614 405.999 130 406C133.935 406 140.355 404.812 143.566 407.603C146.667 410.298 145.999 415.333 146 419C146.004 428.722 141.89 452.341 154.04 456.347C176.468 463.742 173 432.851 173 420C173 416.681 172.261 412.132 174.028 409.148C177.376 403.494 194.244 405.455 199.995 406.109C207.055 406.911 206.991 413.278 207 419C207.015 428.182 202.715 451.395 213.094 455.991C236.35 466.287 232.98 432.502 233 420C233.006 416.384 232.556 411.478 234.938 408.434C238.723 403.598 254.405 405.568 259.999 406.059C267.867 406.748 267 413.923 267 420C267 430.944 262.208 455.554 278 456.906C306.42 459.339 286.243 422.197 295.028 409.434C297.93 405.216 307.595 407 312 407C315.562 407 320.516 406.147 323.852 407.603C328.414 409.595 327 417.011 327 421C327 433.068 323.016 460.689 343 457.782C364.637 454.636 347.654 421.289 355.028 409.228C357.712 404.838 364.661 406 369 406C378.843 406 389.904 406.695 397.815 399.61C405.605 392.633 405.996 380.702 406 371C406.002 366.932 404.652 359.786 407.603 356.514C410.503 353.299 416.124 354.001 420 354C429.161 353.996 446.597 357.363 453.772 350.606C460.662 344.115 456.847 330.909 447.996 328.558C438.507 326.037 412.647 333.698 407.18 323.891C404.922 319.841 407.037 314.379 406.981 310C406.941 306.766 405.728 303.188 406.473 300.005C408.012 293.433 414.688 294 420 294C432.829 293.999 463.33 298.492 456.486 276.004C452.695 263.548 429.882 268.004 420 268C413.144 267.997 406.505 267.468 406.133 259C405.862 252.81 403.773 238.594 410.109 235.028C413.175 233.302 417.62 234 421 234C432.995 234 463.18 237.085 456.761 216.004C452.712 202.707 430.59 207.001 420 207C415.852 207 409.583 207.951 407.028 203.772C405.11 200.635 406 195.515 406 192C406 187.021 404.057 177.042 409.148 174.028C412.132 172.261 416.681 173 420 173C432.119 173 465.687 176.817 455.991 154.04C451.023 142.37 429.078 146 419 146C415.489 146 410.308 146.894 407.434 144.397C403.778 141.22 405 134.297 405 130C405 120.036 405.554 109.953 397.699 102.468C389.995 95.1258 379.955 95 370 95C365.492 95 357.765 96.4741 355.028 91.8519C347.687 79.4543 365.012 44.3991 341 44.0193C322.774 43.731 327 68.8873 327 81C327 87.8073 327.552 94.4199 319 94.956C313.283 95.3145 298.485 97.4257 295.028 91.7716C287.638 79.6847 304.406 41.152 278 43.098C261.41 44.3206 266.018 68.6918 266 80C265.993 84.5953 266.575 92.1434 260.942 93.6821C257.586 94.599 253.452 94 250 94C245.418 94 236.925 95.6243 233.603 91.6821C231.123 88.7381 232 83.5611 232 80C232 67.4615 236.996 42.4581 218 43.0579C201.386 43.5824 205 68.6898 205 80C205 84.4102 206.504 92.1544 200.941 93.6821C197.589 94.6028 193.449 94 190 94C185.418 94 176.925 95.6243 173.603 91.6821C164.009 80.2942 183.762 46.2227 161 43.1898C138.178 40.1491 145 79.3364 145 93z"
     style="fill:#ffffff; stroke:none;" />
  <path
     id="path6"
     d="M233 167C229.857 172.602 225.725 171.627 220 172.17C193.588 174.675 199.467 152.58 192 135C188.882 136.738 185.709 138.581 183.214 141.184C165.992 159.155 202.712 180.978 189.867 200.996C176.701 221.514 144.893 189.862 137.055 215C136.129 217.97 136.026 220.919 136 224C150.422 223.379 167.46 216.551 181 224L181 225C170.793 230.615 157.327 227.477 146 230.71C141.957 231.864 136.58 232.773 134.742 237.105C133.238 240.65 133.096 248.28 138.109 248.762C145.288 249.453 153.91 245.625 161 244.435C173.235 242.383 185.776 242.363 198 244.414C204.315 245.473 210.553 246.652 216 250.248C220.998 253.548 225.296 259.768 232 258.756C243.623 257.002 251.534 231.245 244.397 222.279C239.864 216.585 228.97 218.524 223 213C229.499 210.477 236.1 213.573 241.891 211.243C245.793 209.673 247.815 201.983 244.972 198.643C242.807 196.098 235.126 198.132 232 197.83C218.575 196.536 201.952 194.533 202.184 214C202.377 230.057 220.797 224.474 225.762 234.22C228.335 239.27 222.132 239.556 219 238.647C211.877 236.58 204.537 233.758 199.681 227.91C187.092 212.752 196.673 189.928 216 187.305C224.203 186.191 233.193 192.808 240.892 187.91C247.706 183.576 249.307 159.069 243.682 153.419C238.738 148.453 227.511 146.525 221 144L221 142C226.426 141.421 241.344 146.166 245.218 142.958C249.158 139.695 245.257 128.125 241.891 125.738C234.805 120.713 219.751 122.169 212 124.75C199.075 129.053 195.724 159.01 210.004 163.606C217.571 166.041 225.464 164.253 233 167M287 147C276.621 148.481 267.314 146.565 258.228 153.815C251.349 159.304 253.515 183.301 260.109 188.486C267.725 194.476 279.147 187.36 288 189.519C309.392 194.733 314.041 222.258 296 234.034C291.454 237.001 285.45 239.768 280.005 240.427C277.532 240.726 273.93 239.475 275.89 236.374C280.933 228.398 293.698 232.184 297.057 221C299.798 211.874 294.923 199.659 285 197.394C279.627 196.168 274.304 198.299 269 198.829C265.151 199.214 259.854 197.94 256.318 199.742C252.784 201.544 252.734 211.633 256.318 213.397C261.338 215.867 267.771 212.414 272.996 213.243C274.895 213.544 277.807 214.566 278.218 216.779C279.308 222.661 260.501 222.936 257.318 225.164C249.168 230.869 256.622 253.461 262.185 258.671C273.922 269.661 280.545 253.449 291 249.764C306.763 244.207 331.331 244.163 347 249.576C351.41 251.099 363.547 256.142 364.856 248.941C368.149 230.818 344.592 232.146 332 231.996C328.593 231.956 317.059 231.818 317.921 226.104C318.577 221.759 326.14 223.036 329 223.425C341.377 225.109 353.519 225 366 225C365.566 221.642 365.047 218.201 363.895 215C355.583 191.902 326.241 219.783 312.419 205.606C301.095 193.991 318.888 170.779 322.073 159C323.944 152.08 321.904 139.675 313.058 138.176C307.514 137.237 307.359 150.497 306.75 154C304.014 169.745 297.003 172.377 282 173.039C278.157 173.209 272.574 175.315 269.296 172.401C265.488 169.016 271.163 166.584 274 166.189C280.231 165.32 289.452 166.897 294.856 163.142C301.458 158.553 300.643 137.761 297.852 131.043C295.314 124.936 287.787 124.358 282 124.035C271.001 123.422 248.526 123.507 254.434 141.852C256.045 146.855 262.519 144.407 266 143.214C274.024 140.464 282.27 138.171 287 147M168 157C164.725 160.589 157.595 167.412 160.223 172.83C162.32 177.152 170.329 180.385 169.883 185.851C169.55 189.928 164.185 188.185 162 187.175C155.08 183.979 148.539 182.367 147.954 192.945C147.532 200.561 173.593 204.408 178.945 201.542C192.538 194.264 174.522 164.507 168 157M332 157C328.796 162.489 326.027 168.278 323.258 174C320.691 179.305 314.683 188.925 316.782 194.981C320.287 205.092 346.286 202.132 352.393 196.005C356.323 192.062 349.834 181.837 344.95 181.947C340.831 182.039 336.551 186.371 332 187L340.458 171L334 157L332 157M139 280C144.852 278.486 153.997 280.661 158.895 277.971C164.731 274.767 164.9 265.711 173 265.413C184.78 264.98 192.942 283.314 188.486 292.957C186.62 296.996 166.445 309.807 162.752 305.353C159.606 301.561 168.5 296.52 171 295.328C174.165 293.818 178.946 293.432 181.243 290.57C186.274 284.304 178.017 274.964 173 272C170.82 277.313 168.538 286.192 161.996 287.473C157.194 288.413 149.972 283.237 145.858 287.603C142.646 291.013 144.569 297.155 145.721 301C149.343 313.087 156.163 322.621 163 333L165 333C167.566 328.493 169.077 322.727 174.015 320.179C179.816 317.186 186.887 319.729 192.985 316.467C198.949 313.276 201.495 306.719 208 303.955C211.525 302.458 224.429 299.41 227.079 303.588C229.933 308.088 212.571 311.928 210 313.479C204.964 316.517 201.442 321.829 196 324.146C185.899 328.447 171.954 322.614 173.097 339C173.242 341.068 173.705 343.077 174.482 345C181.155 361.516 206.224 374.944 223 377.916C240.075 380.941 251.412 373.675 247.772 355.045C246.799 350.068 242.765 350.689 239 352.316C226.389 357.769 219.845 363.288 208 353.13C205.858 351.293 201.207 348.472 201.207 345.239C201.207 341.729 206.298 343.197 208 344.104C211.504 345.972 213.989 349.613 218 350.527C225.281 352.185 242.061 346.342 245.91 339.957C249.719 333.639 247.513 324.308 238.999 325.189C232.82 325.828 228.637 330.038 223.005 331.867C220.714 332.61 217.611 332.036 218.06 328.941C219.876 316.414 237.522 320.709 244.697 315.836C249.841 312.341 247.125 300.011 245.745 295.001C243.275 286.027 235.427 287.128 228 288.275C216.798 290.004 208.807 292.441 201.298 281.999C199.75 279.847 197.066 276.916 197.255 274.059C197.451 271.098 200.545 270.228 202.792 271.662C206.821 274.234 208.012 279.604 213.001 281.168C217.405 282.549 223.547 280.066 228 279.428C240.428 277.649 249.939 279.709 245 263C240.514 265.085 236.187 268.176 231 267.775C219.603 266.892 213.638 254.02 202 252.301C193.622 251.063 179.919 255.242 173 250C164.394 252.424 155.673 254.458 147 256.627C143.969 257.385 139.141 257.749 137.179 260.513C133.632 265.512 137.152 274.966 139 280M257 264L258 281L288.996 283.393L306 271C304.737 283.33 295.185 291.292 283 289.711C273.998 288.542 260.749 284.449 256.789 296.004C255.818 298.839 255.294 302.017 255.09 305C253.48 328.497 282.622 310.71 285.762 327.996C286.207 330.443 284.765 333.375 281.944 333.093C273.256 332.226 256.906 316.488 257.001 335.999C257.01 337.986 256.722 340.594 258.028 342.272C260.622 345.608 282.13 353.078 285.999 351.886C290.454 350.513 292.511 346.092 296.09 343.529C297.899 342.234 302.76 340.673 303.369 344.228C303.95 347.622 298.147 350.844 296 352.615C292.417 355.57 288.733 360.5 284 361.523C275.513 363.358 269.127 352.904 261.015 352.619C251.32 352.279 253.673 368.271 257.419 372.956C262.641 379.486 271.339 379.655 279 378.714C295.519 376.685 311.74 368.834 322.56 355.999C327.267 350.417 332.923 341.817 330.485 334.043C327.304 323.895 313.027 330.443 306.015 326.142C300.1 322.513 298.78 315.271 291.999 312.483C288.619 311.093 276.659 311.098 277.631 305.13C278.664 298.788 291.92 303.223 294.999 304.966C300.905 308.309 303.767 315.445 310.004 317.991C315.187 320.107 320.647 317.474 326 318.19C334.514 319.328 337.313 327.709 339 335C348.884 327.979 355.824 314.755 358.331 303C359.091 299.436 360.296 292.502 357.397 289.603C353.474 285.681 345.758 289.473 341.043 286.972C337.086 284.873 333.474 271.289 328.375 274.086C324.362 276.288 319.232 288.626 323.357 292.143C326.745 295.03 332.242 294.779 336 297.558C337.925 298.982 343.961 303.39 342.079 306.382C340.534 308.839 335.991 306.996 334 306.301C328.083 304.236 317.485 301.257 314.862 294.957C311.293 286.386 320.866 264.634 331 265.078C341.102 265.521 337.972 276.098 344.279 279.968C348.444 282.525 358.367 278.769 362.941 277.867C367.994 276.87 370.371 265.332 367.307 261.514C364.379 257.865 355.33 257.456 351 256.373C333.766 252.065 312.015 250.397 295 257.258C287.873 260.132 282.485 267.403 275 269.11C268.556 270.578 262.967 265.365 257 264z"
     style="fill:#000000; stroke:none;" />
</svg>
